<svg width="25" height="24" viewBox="0 0 25 24" fill="none" xmlns="http://www.w3.org/2000/svg">
<path d="M19.207 8.28578C19.0193 8.10279 18.7647 8 18.4993 8C18.2339 8 17.9794 8.10279 17.7917 8.28578L13.2016 12.762C13.0113 12.9401 12.7577 13.0396 12.494 13.0396C12.2302 13.0396 11.9766 12.9401 11.7863 12.762L7.19623 8.28578C7.00746 8.10798 6.75463 8.0096 6.4922 8.01182C6.22977 8.01405 5.97873 8.1167 5.79316 8.29767C5.60758 8.47864 5.50232 8.72345 5.50004 8.97937C5.49776 9.23529 5.59864 9.48185 5.78096 9.66594L10.3701 14.1422C10.6489 14.4141 10.9799 14.6299 11.3443 14.7771C11.7086 14.9242 12.0991 15 12.4935 15C12.8878 15 13.2783 14.9242 13.6427 14.7771C14.007 14.6299 14.338 14.4141 14.6169 14.1422L19.207 9.66594C19.3946 9.4829 19.5 9.23467 19.5 8.97586C19.5 8.71704 19.3946 8.46882 19.207 8.28578Z" fill="white"/>
</svg>
