<svg width="20" height="20" viewBox="0 0 20 20" fill="none" xmlns="http://www.w3.org/2000/svg">
<path d="M15.5895 6.90481C15.433 6.75232 15.2209 6.66666 14.9998 6.66666C14.7786 6.66666 14.5665 6.75232 14.4101 6.90481L10.585 10.635C10.4264 10.7834 10.2151 10.8663 9.99529 10.8663C9.77548 10.8663 9.56418 10.7834 9.4056 10.635L5.58051 6.90481C5.42321 6.75664 5.21252 6.67466 4.99382 6.67651C4.77513 6.67836 4.56593 6.7639 4.41129 6.91471C4.25664 7.06552 4.16892 7.26953 4.16702 7.4828C4.16512 7.69607 4.24919 7.90153 4.40113 8.05494L8.22538 11.7851C8.45774 12.0118 8.7336 12.1915 9.03721 12.3142C9.34082 12.4369 9.66624 12.5 9.99487 12.5C10.3235 12.5 10.6489 12.4369 10.9525 12.3142C11.2561 12.1915 11.532 12.0118 11.7644 11.7851L15.5895 8.05494C15.7458 7.9024 15.8337 7.69555 15.8337 7.47987C15.8337 7.26419 15.7458 7.05734 15.5895 6.90481Z" fill="#1D6BF3"/>
</svg>
