<svg width="20" height="20" viewBox="0 0 20 20" fill="none" xmlns="http://www.w3.org/2000/svg">
<path d="M3.125 5.46891H4.835C4.96915 5.96249 5.26198 6.39822 5.66833 6.70887C6.07467 7.01952 6.57195 7.18782 7.08344 7.18782C7.59492 7.18782 8.0922 7.01952 8.49855 6.70887C8.90489 6.39822 9.19773 5.96249 9.33187 5.46891H16.875C17.0408 5.46891 17.1997 5.40306 17.3169 5.28585C17.4342 5.16864 17.5 5.00967 17.5 4.84391C17.5 4.67815 17.4342 4.51918 17.3169 4.40197C17.1997 4.28476 17.0408 4.21891 16.875 4.21891H9.33187C9.19773 3.72533 8.90489 3.2896 8.49855 2.97896C8.0922 2.66831 7.59492 2.5 7.08344 2.5C6.57195 2.5 6.07467 2.66831 5.66833 2.97896C5.26198 3.2896 4.96915 3.72533 4.835 4.21891H3.125C2.95924 4.21891 2.80027 4.28476 2.68306 4.40197C2.56585 4.51918 2.5 4.67815 2.5 4.84391C2.5 5.00967 2.56585 5.16864 2.68306 5.28585C2.80027 5.40306 2.95924 5.46891 3.125 5.46891ZM7.08313 3.75016C7.29945 3.75016 7.51091 3.81431 7.69078 3.93449C7.87065 4.05467 8.01083 4.2255 8.09362 4.42535C8.1764 4.62521 8.19806 4.84513 8.15586 5.05729C8.11366 5.26946 8.00949 5.46435 7.85652 5.61731C7.70356 5.77027 7.50867 5.87444 7.2965 5.91665C7.08434 5.95885 6.86442 5.93719 6.66457 5.85441C6.46471 5.77162 6.29389 5.63143 6.17371 5.45157C6.05352 5.2717 5.98938 5.06024 5.98938 4.84391C5.98971 4.55393 6.10505 4.27593 6.31009 4.07088C6.51514 3.86583 6.79315 3.75049 7.08313 3.75016Z" fill="white"/>
<path d="M16.875 9.37498H15.165C15.0311 8.88128 14.7384 8.4454 14.332 8.13462C13.9257 7.82384 13.4284 7.65546 12.9169 7.65546C12.4053 7.65546 11.908 7.82384 11.5017 8.13462C11.0954 8.4454 10.8027 8.88128 10.6687 9.37498H3.125C2.95924 9.37498 2.80027 9.44083 2.68306 9.55804C2.56585 9.67525 2.5 9.83422 2.5 9.99998C2.5 10.1657 2.56585 10.3247 2.68306 10.4419C2.80027 10.5591 2.95924 10.625 3.125 10.625H10.6687C10.8027 11.1187 11.0954 11.5546 11.5017 11.8653C11.908 12.1761 12.4053 12.3445 12.9169 12.3445C13.4284 12.3445 13.9257 12.1761 14.332 11.8653C14.7384 11.5546 15.0311 11.1187 15.165 10.625H16.875C17.0408 10.625 17.1997 10.5591 17.3169 10.4419C17.4342 10.3247 17.5 10.1657 17.5 9.99998C17.5 9.83422 17.4342 9.67525 17.3169 9.55804C17.1997 9.44083 17.0408 9.37498 16.875 9.37498ZM12.9169 11.0937C12.7006 11.0937 12.4891 11.0296 12.3092 10.9094C12.1294 10.7892 11.9892 10.6184 11.9064 10.4185C11.8236 10.2187 11.8019 9.99877 11.8441 9.7866C11.8863 9.57443 11.9905 9.37954 12.1435 9.22658C12.2964 9.07362 12.4913 8.96945 12.7035 8.92724C12.9157 8.88504 13.1356 8.9067 13.3354 8.98949C13.5353 9.07227 13.7061 9.21246 13.8263 9.39232C13.9465 9.57219 14.0106 9.78366 14.0106 9.99998C14.0103 10.29 13.895 10.568 13.6899 10.773C13.4849 10.9781 13.2069 11.0934 12.9169 11.0937Z" fill="white"/>
<path d="M16.875 14.5314H9.33187C9.19773 14.0378 8.90489 13.6021 8.49855 13.2915C8.0922 12.9808 7.59492 12.8125 7.08344 12.8125C6.57195 12.8125 6.07467 12.9808 5.66833 13.2915C5.26198 13.6021 4.96915 14.0378 4.835 14.5314H3.125C2.95924 14.5314 2.80027 14.5973 2.68306 14.7145C2.56585 14.8317 2.5 14.9907 2.5 15.1564C2.5 15.3222 2.56585 15.4811 2.68306 15.5984C2.80027 15.7156 2.95924 15.7814 3.125 15.7814H4.835C4.96915 16.275 5.26198 16.7107 5.66833 17.0214C6.07467 17.332 6.57195 17.5003 7.08344 17.5003C7.59492 17.5003 8.0922 17.332 8.49855 17.0214C8.90489 16.7107 9.19773 16.275 9.33187 15.7814H16.875C17.0408 15.7814 17.1997 15.7156 17.3169 15.5984C17.4342 15.4811 17.5 15.3222 17.5 15.1564C17.5 14.9907 17.4342 14.8317 17.3169 14.7145C17.1997 14.5973 17.0408 14.5314 16.875 14.5314ZM7.08313 16.2502C6.8668 16.2502 6.65534 16.186 6.47547 16.0658C6.2956 15.9457 6.15542 15.7748 6.07263 15.575C5.98985 15.3751 5.96819 15.1552 6.01039 14.943C6.05259 14.7309 6.15676 14.536 6.30973 14.383C6.46269 14.2301 6.65758 14.1259 6.86974 14.0837C7.08191 14.0415 7.30183 14.0631 7.50169 14.1459C7.70154 14.2287 7.87236 14.3689 7.99254 14.5488C8.11273 14.7286 8.17688 14.9401 8.17688 15.1564C8.17638 15.4463 8.06099 15.7243 7.85598 15.9293C7.65097 16.1343 7.37305 16.2497 7.08313 16.2502Z" fill="white"/>
</svg>
