<svg width="20" height="20" viewBox="0 0 20 20" fill="none" xmlns="http://www.w3.org/2000/svg">
<path d="M15.5885 6.90484C15.4321 6.75235 15.2199 6.66669 14.9988 6.66669C14.7776 6.66669 14.5655 6.75235 14.4091 6.90484L10.584 10.635C10.4254 10.7835 10.2141 10.8664 9.99431 10.8664C9.7745 10.8664 9.5632 10.7835 9.40462 10.635L5.57954 6.90484C5.42223 6.75667 5.21154 6.67469 4.99285 6.67654C4.77415 6.67839 4.56496 6.76394 4.41031 6.91474C4.25567 7.06555 4.16795 7.26956 4.16605 7.48283C4.16415 7.6961 4.24822 7.90156 4.40015 8.05497L8.2244 11.7852C8.45676 12.0118 8.73262 12.1916 9.03623 12.3142C9.33985 12.4369 9.66526 12.5 9.9939 12.5C10.3225 12.5 10.6479 12.4369 10.9516 12.3142C11.2552 12.1916 11.531 12.0118 11.7634 11.7852L15.5885 8.05497C15.7448 7.90243 15.8327 7.69558 15.8327 7.4799C15.8327 7.26422 15.7448 7.05737 15.5885 6.90484Z" fill="#1D6BF3"/>
</svg>
