<svg width="18" height="12" viewBox="0 0 18 12" fill="none" xmlns="http://www.w3.org/2000/svg">
<path d="M6.33282 9.91905L2.41382 6.00005C2.22629 5.81258 1.97198 5.70727 1.70682 5.70727C1.44165 5.70727 1.18735 5.81258 0.999818 6.00005C0.812347 6.18758 0.707031 6.44189 0.707031 6.70705C0.707031 6.97222 0.812347 7.22653 0.999818 7.41405L4.91882 11.3331C5.10455 11.5189 5.32506 11.6662 5.56776 11.7668C5.81047 11.8674 6.07061 11.9191 6.33332 11.9191C6.59603 11.9191 6.85617 11.8674 7.09887 11.7668C7.34158 11.6662 7.56209 11.5189 7.74782 11.3331L16.9998 2.08105C17.1873 1.89353 17.2926 1.63922 17.2926 1.37405C17.2926 1.10889 17.1873 0.854581 16.9998 0.667054C16.8123 0.479583 16.558 0.374268 16.2928 0.374268C16.0277 0.374268 15.7733 0.479583 15.5858 0.667054L6.33282 9.91905Z" fill="#5A9BFF"/>
</svg>
