<svg width="20" height="20" viewBox="0 0 20 20" fill="none" xmlns="http://www.w3.org/2000/svg">
<path fill-rule="evenodd" clip-rule="evenodd" d="M4.375 5H15.625C15.9369 5 16.231 5.07614 16.4897 5.21085L10.9375 9.375C10.3819 9.79167 9.61806 9.79167 9.0625 9.375L3.51031 5.21085C3.76904 5.07614 4.06313 5 4.375 5ZM2.50155 6.79804C2.50052 6.82356 2.5 6.84922 2.5 6.875V13.125C2.5 14.1605 3.33947 15 4.375 15H15.625C16.6605 15 17.5 14.1605 17.5 13.125V6.875C17.5 6.84922 17.4995 6.82356 17.4985 6.79804L12.0625 10.875C10.8403 11.7917 9.15972 11.7917 7.9375 10.875L2.50155 6.79804ZM0.625 6.875C0.625 4.80393 2.30393 3.125 4.375 3.125H15.625C17.6961 3.125 19.375 4.80393 19.375 6.875V13.125C19.375 15.1961 17.6961 16.875 15.625 16.875H4.375C2.30393 16.875 0.625 15.1961 0.625 13.125V6.875Z" fill="#FFFFFF"/>
</svg>
