<svg width="24" height="24" viewBox="0 0 24 24" fill="none" xmlns="http://www.w3.org/2000/svg">
<path d="M21.7114 20.2899L18.0014 16.6099C19.4415 14.8143 20.1389 12.5352 19.9502 10.2412C19.7615 7.94721 18.701 5.81269 16.9869 4.27655C15.2727 2.74041 13.0352 1.91941 10.7343 1.98237C8.43341 2.04534 6.24409 2.98747 4.61651 4.61505C2.98893 6.24263 2.0468 8.43194 1.98384 10.7328C1.92088 13.0337 2.74188 15.2713 4.27801 16.9854C5.81415 18.6996 7.94867 19.76 10.2427 19.9487C12.5367 20.1374 14.8158 19.44 16.6114 17.9999L20.2914 21.6799C20.3843 21.7736 20.4949 21.848 20.6168 21.8988C20.7387 21.9496 20.8694 21.9757 21.0014 21.9757C21.1334 21.9757 21.2641 21.9496 21.3859 21.8988C21.5078 21.848 21.6184 21.7736 21.7114 21.6799C21.8916 21.4934 21.9924 21.2442 21.9924 20.9849C21.9924 20.7256 21.8916 20.4764 21.7114 20.2899ZM11.0014 17.9999C9.6169 17.9999 8.26352 17.5894 7.11238 16.8202C5.96123 16.051 5.06403 14.9578 4.53421 13.6787C4.0044 12.3996 3.86578 10.9921 4.13587 9.63427C4.40597 8.27641 5.07265 7.02912 6.05162 6.05016C7.03059 5.07119 8.27787 4.4045 9.63574 4.13441C10.9936 3.86431 12.4011 4.00293 13.6802 4.53275C14.9592 5.06256 16.0525 5.95977 16.8217 7.11091C17.5908 8.26206 18.0014 9.61544 18.0014 10.9999C18.0014 12.8564 17.2639 14.6369 15.9511 15.9497C14.6384 17.2624 12.8579 17.9999 11.0014 17.9999Z" fill="#797981"/>
</svg>
