<svg width="21" height="20" viewBox="0 0 21 20" fill="none" xmlns="http://www.w3.org/2000/svg">
<path d="M18.855 1.64607C18.3337 1.12565 17.6273 0.833344 16.8907 0.833344C16.1542 0.833344 15.4477 1.12565 14.9265 1.64607L2.45718 14.1154C2.1001 14.4705 1.81698 14.8928 1.62418 15.358C1.43139 15.8232 1.33276 16.322 1.334 16.8256V18.3996C1.334 18.6029 1.41477 18.7979 1.55855 18.9417C1.70233 19.0855 1.89734 19.1663 2.10068 19.1663H3.67467C4.1782 19.1677 4.67701 19.0692 5.14222 18.8766C5.60743 18.6839 6.02981 18.4009 6.38489 18.0439L18.855 5.57378C19.3752 5.05259 19.6673 4.3463 19.6673 3.60993C19.6673 2.87356 19.3752 2.16727 18.855 1.64607ZM5.30081 16.9598C4.8684 17.3893 4.28416 17.6312 3.67467 17.6329H2.86736V16.8256C2.86658 16.5235 2.92575 16.2242 3.04142 15.945C3.1571 15.6659 3.327 15.4125 3.54127 15.1995L13.0044 5.73632L14.7678 7.49969L5.30081 16.9598ZM17.7701 4.4897L15.8488 6.41177L14.0854 4.65223L16.0075 2.73016C16.1233 2.61463 16.2607 2.52303 16.4119 2.4606C16.5631 2.39817 16.7251 2.36613 16.8886 2.36631C17.0522 2.36649 17.2141 2.39888 17.3652 2.46164C17.5162 2.5244 17.6534 2.61629 17.769 2.73208C17.8845 2.84786 17.9761 2.98527 18.0385 3.13645C18.101 3.28764 18.133 3.44964 18.1328 3.6132C18.1326 3.77677 18.1002 3.9387 18.0375 4.08974C17.9747 4.24079 17.8828 4.378 17.767 4.49353L17.7701 4.4897Z" fill="#1D6BF3"/>
</svg>
