<svg width="24" height="20" viewBox="0 0 24 20" fill="none" xmlns="http://www.w3.org/2000/svg">
<path d="M22.3233 6.55959H20.8106V5.04679C20.8106 4.12227 20.0585 3.37012 19.134 3.37012H17.6212V1.85746C17.6212 0.929896 16.8687 0.180786 15.9446 0.180786H1.67667C0.754453 0.180833 0 0.927552 0 1.85746V11.7637C0 12.6882 0.752156 13.4403 1.67667 13.4403H3.18937V14.9531C3.18937 15.8776 3.94153 16.6298 4.86605 16.6298H6.37875V18.1425C6.37875 19.067 7.13091 19.8192 8.05542 19.8192H22.3234C23.2479 19.8192 24 19.067 24 18.1425V8.23621C24 7.31174 23.2478 6.55959 22.3233 6.55959ZM14.7343 1.85511L8.81063 7.66045L2.88708 1.85526L14.7343 1.85511ZM1.67442 11.7637L1.67475 3.01157L8.22464 9.43059C8.55019 9.74967 9.07116 9.74957 9.39661 9.43059L15.9465 3.01152L15.9447 11.7659L1.67442 11.7637ZM4.8638 14.953V13.4403H15.9447C16.8692 13.4403 17.6213 12.6882 17.6213 11.7637V5.04482L19.1362 5.04529C19.1362 5.04529 19.1362 5.0458 19.1362 5.04683L19.134 14.9553L4.8638 14.953ZM22.3233 18.1447L8.05317 18.1424V16.6297H19.134C20.0586 16.6297 20.8107 15.8775 20.8107 14.953V8.23424L22.3256 8.23466C22.3256 8.23466 22.3257 8.23518 22.3257 8.23621L22.3233 18.1447Z" fill="#797981"/>
</svg>
