<svg width="24" height="24" viewBox="0 0 24 24" fill="none" xmlns="http://www.w3.org/2000/svg">
<g clip-path="url(#clip0_687_22045)">
<path d="M13.8443 17.267L10.5823 20.529C9.63521 21.4507 8.3633 21.9625 7.04174 21.9537C5.72017 21.9448 4.45524 21.416 3.5206 20.4816C2.58596 19.5473 2.05678 18.2825 2.04755 16.9609C2.03833 15.6393 2.54979 14.3673 3.47129 13.42L6.73329 10.155C6.9208 9.96732 7.02608 9.71287 7.02599 9.4476C7.0259 9.18233 6.92043 8.92796 6.73279 8.74046C6.54515 8.55295 6.2907 8.44766 6.02543 8.44775C5.76016 8.44785 5.5058 8.55332 5.31829 8.74096L2.05729 12.006C0.73956 13.3243 -0.000468632 15.1122 2.22651e-07 16.9762C0.000469077 18.8402 0.741397 20.6277 2.05979 21.9455C3.37818 23.2632 5.16604 24.0032 7.03006 24.0027C8.89407 24.0023 10.6816 23.2613 11.9993 21.943L15.2613 18.681C15.4434 18.4924 15.5442 18.2398 15.542 17.9776C15.5397 17.7154 15.4345 17.4645 15.2491 17.2791C15.0637 17.0937 14.8129 16.9886 14.5507 16.9863C14.2885 16.984 14.0359 17.0848 13.8473 17.267H13.8443Z" fill="#797981"/>
<path d="M21.9445 2.06102C21.2938 1.40584 20.5195 0.886303 19.6665 0.532521C18.8136 0.178738 17.8989 -0.00225646 16.9755 2.46408e-05C16.0525 -0.00242709 15.1383 0.178103 14.2855 0.531176C13.4328 0.884249 12.6585 1.40286 12.0075 2.05702L8.74047 5.32002C8.55283 5.50753 8.44736 5.7619 8.44727 6.02717C8.44717 6.29244 8.55246 6.54688 8.73997 6.73452C8.92748 6.92217 9.18184 7.02763 9.44712 7.02773C9.71239 7.02782 9.96683 6.92253 10.1545 6.73502L13.4195 3.47302C13.885 3.00467 14.4389 2.63333 15.0489 2.38048C15.659 2.12764 16.3131 1.99833 16.9735 2.00002C17.9677 2.00035 18.9396 2.29546 19.7662 2.84802C20.5927 3.40059 21.2369 4.18582 21.6173 5.10444C21.9977 6.02307 22.0972 7.03384 21.9032 8.009C21.7092 8.98416 21.2305 9.87991 20.5275 10.583L17.2655 13.845C17.0778 14.0327 16.9724 14.2872 16.9724 14.5525C16.9724 14.8179 17.0778 15.0724 17.2655 15.26C17.4531 15.4477 17.7076 15.5531 17.973 15.5531C18.2383 15.5531 18.4928 15.4477 18.6805 15.26L21.9425 12C23.2585 10.6811 23.9978 8.89413 23.9982 7.03094C23.9985 5.16775 23.26 3.38046 21.9445 2.06102Z" fill="#797981"/>
<path d="M14.2936 8.29292L8.29357 14.2929C8.19806 14.3852 8.12188 14.4955 8.06947 14.6175C8.01706 14.7395 7.98947 14.8707 7.98832 15.0035C7.98717 15.1363 8.01247 15.268 8.06275 15.3909C8.11303 15.5138 8.18728 15.6254 8.28117 15.7193C8.37507 15.8132 8.48672 15.8875 8.60962 15.9377C8.73251 15.988 8.86419 16.0133 8.99697 16.0122C9.12975 16.011 9.26097 15.9834 9.38297 15.931C9.50498 15.8786 9.61532 15.8024 9.70757 15.7069L15.7076 9.70692C15.8897 9.51832 15.9905 9.26571 15.9882 9.00352C15.986 8.74132 15.8808 8.49051 15.6954 8.3051C15.51 8.11969 15.2592 8.01452 14.997 8.01224C14.7348 8.00997 14.4822 8.11076 14.2936 8.29292Z" fill="#797981"/>
</g>
<defs>
<clipPath id="clip0_687_22045">
<rect width="24" height="24" fill="white"/>
</clipPath>
</defs>
</svg>
