<svg width="25" height="24" viewBox="0 0 25 24" fill="none" xmlns="http://www.w3.org/2000/svg">
<path fill-rule="evenodd" clip-rule="evenodd" d="M5.75 6H19.25C19.6242 6 19.9772 6.09137 20.2876 6.25303L13.625 11.25C12.9583 11.75 12.0417 11.75 11.375 11.25L4.71237 6.25303C5.02284 6.09137 5.37575 6 5.75 6ZM3.50186 8.15765C3.50062 8.18828 3.5 8.21907 3.5 8.25V15.75C3.5 16.9926 4.50736 18 5.75 18H19.25C20.4926 18 21.5 16.9926 21.5 15.75V8.25C21.5 8.21907 21.4994 8.18828 21.4981 8.15765L14.975 13.05C13.5083 14.15 11.4917 14.15 10.025 13.05L3.50186 8.15765ZM1.25 8.25C1.25 5.76472 3.26472 3.75 5.75 3.75H19.25C21.7353 3.75 23.75 5.76472 23.75 8.25V15.75C23.75 18.2353 21.7353 20.25 19.25 20.25H5.75C3.26472 20.25 1.25 18.2353 1.25 15.75V8.25Z" fill="white"/>
</svg>
