<svg width="24" height="24" viewBox="0 0 24 24" fill="none" xmlns="http://www.w3.org/2000/svg">
<path d="M22.2647 2.42772C21.98 2.19085 21.6364 2.03561 21.2704 1.97852C20.9045 1.92143 20.5299 1.96463 20.1866 2.10351L2.26566 9.33886C1.88241 9.49654 1.55618 9.76705 1.33026 10.1145C1.10434 10.4619 0.989427 10.8698 1.00076 11.2841C1.0121 11.6984 1.14916 12.0994 1.39374 12.4339C1.63832 12.7685 1.97886 13.0207 2.37016 13.1572L5.99516 14.418L8.01566 21.0996C8.04312 21.1889 8.08297 21.2738 8.13404 21.352C8.14179 21.364 8.15272 21.3729 8.16096 21.3846C8.21996 21.4669 8.29127 21.5397 8.37239 21.6003C8.39546 21.6179 8.41755 21.6344 8.44221 21.65C8.53714 21.713 8.64228 21.7591 8.75294 21.7861L8.76478 21.7871L8.77149 21.79C8.83802 21.8035 8.90574 21.8104 8.97364 21.8105C8.98017 21.8105 8.98597 21.8074 8.99244 21.8073C9.0949 21.8055 9.19647 21.7878 9.29353 21.755C9.31611 21.7473 9.33546 21.7344 9.35737 21.7251C9.42975 21.6951 9.49832 21.6567 9.56166 21.6106C9.61238 21.5678 9.66312 21.5251 9.71388 21.4824L12.416 18.499L16.4463 21.6211C16.8011 21.8973 17.2379 22.0474 17.6875 22.0478C18.1587 22.0472 18.6154 21.8846 18.9809 21.5874C19.3465 21.2901 19.5987 20.8762 19.6954 20.415L22.958 4.39843C23.032 4.03795 23.0065 3.66415 22.8844 3.31702C22.7623 2.96989 22.5481 2.66249 22.2647 2.42772ZM9.37016 14.7363C9.2315 14.8744 9.13672 15.0504 9.0977 15.2422L8.78819 16.7462L8.00413 14.1531L12.0694 12.0362L9.37016 14.7363ZM17.6719 20.04L12.9092 16.3505C12.71 16.1966 12.46 16.1233 12.2092 16.1454C11.9583 16.1675 11.725 16.2833 11.5557 16.4697L10.6903 17.4249L10.9961 15.9384L18.0791 8.85543C18.2482 8.68659 18.3512 8.46278 18.3695 8.22455C18.3878 7.98632 18.3201 7.74941 18.1788 7.55675C18.0375 7.36408 17.8319 7.22839 17.5992 7.17426C17.3664 7.12014 17.122 7.15115 16.9102 7.26168L6.74491 12.5543L3.02055 11.1914L20.999 3.99899L17.6719 20.04Z" fill="#797981"/>
</svg>
