<svg width="14" height="7" viewBox="0 0 14 7" fill="none" xmlns="http://www.w3.org/2000/svg">
<path d="M13.707 0.285779C13.5193 0.102794 13.2647 0 12.9993 0C12.7339 0 12.4794 0.102794 12.2917 0.285779L7.70159 4.76202C7.51129 4.94014 7.25773 5.0396 6.99396 5.0396C6.73018 5.0396 6.47663 4.94014 6.28633 4.76202L1.69623 0.285779C1.50746 0.10798 1.25463 0.00959836 0.992197 0.0118222C0.729766 0.0140461 0.478729 0.116698 0.293155 0.297668C0.107581 0.478639 0.00231829 0.723449 3.78363e-05 0.97937C-0.00224262 1.23529 0.0986423 1.48185 0.280963 1.66594L4.87006 6.14217C5.14889 6.41414 5.47993 6.62987 5.84426 6.77706C6.2086 6.92424 6.5991 7 6.99346 7C7.38782 7 7.77832 6.92424 8.14265 6.77706C8.50699 6.62987 8.83802 6.41414 9.11685 6.14217L13.707 1.66594C13.8946 1.4829 14 1.23467 14 0.975857C14 0.717039 13.8946 0.468818 13.707 0.285779Z" fill="#797981"/>
</svg>
