<svg width="19" height="20" viewBox="0 0 19 20" fill="none" xmlns="http://www.w3.org/2000/svg">
<path d="M17.855 1.64607C17.3337 1.12565 16.6273 0.833344 15.8907 0.833344C15.1542 0.833344 14.4477 1.12565 13.9265 1.64607L1.45718 14.1154C1.1001 14.4705 0.816976 14.8928 0.624183 15.358C0.431391 15.8232 0.332759 16.322 0.333996 16.8256V18.3996C0.333996 18.6029 0.414771 18.7979 0.558552 18.9417C0.702332 19.0855 0.897341 19.1663 1.10068 19.1663H2.67467C3.1782 19.1677 3.67701 19.0692 4.14222 18.8766C4.60743 18.6839 5.02981 18.4009 5.38489 18.0439L17.855 5.57378C18.3752 5.05259 18.6673 4.3463 18.6673 3.60993C18.6673 2.87356 18.3752 2.16727 17.855 1.64607ZM4.30081 16.9598C3.8684 17.3893 3.28416 17.6312 2.67467 17.6329H1.86736V16.8256C1.86658 16.5235 1.92575 16.2242 2.04142 15.945C2.1571 15.6659 2.327 15.4125 2.54127 15.1995L12.0044 5.73632L13.7678 7.49969L4.30081 16.9598ZM16.7701 4.4897L14.8488 6.41177L13.0854 4.65223L15.0075 2.73016C15.1233 2.61463 15.2607 2.52303 15.4119 2.4606C15.5631 2.39817 15.7251 2.36613 15.8886 2.36631C16.0522 2.36649 16.2141 2.39888 16.3652 2.46164C16.5162 2.5244 16.6534 2.61629 16.769 2.73208C16.8845 2.84786 16.9761 2.98527 17.0385 3.13645C17.101 3.28764 17.133 3.44964 17.1328 3.6132C17.1326 3.77677 17.1002 3.9387 17.0375 4.08974C16.9747 4.24079 16.8828 4.378 16.767 4.49353L16.7701 4.4897Z" fill="#1D6BF3"/>
</svg>
