<svg width="25" height="25" viewBox="0 0 25 25" fill="none" xmlns="http://www.w3.org/2000/svg">
<rect x="1.5" y="1" width="23" height="23" rx="3.5" fill="white" stroke="#1D6BF3"/>
<path d="M10.3035 16.419L6.38452 12.5C6.19699 12.3125 5.94268 12.2072 5.67752 12.2072C5.41236 12.2072 5.15805 12.3125 4.97052 12.5C4.78305 12.6875 4.67773 12.9418 4.67773 13.207C4.67773 13.4722 4.78305 13.7265 4.97052 13.914L8.88952 17.833C9.07525 18.0188 9.29576 18.1662 9.53847 18.2667C9.78117 18.3673 10.0413 18.4191 10.304 18.4191C10.5667 18.4191 10.8269 18.3673 11.0696 18.2667C11.3123 18.1662 11.5328 18.0188 11.7185 17.833L20.9705 8.58099C21.158 8.39347 21.2633 8.13916 21.2633 7.87399C21.2633 7.60883 21.158 7.35452 20.9705 7.16699C20.783 6.97952 20.5287 6.87421 20.2635 6.87421C19.9984 6.87421 19.744 6.97952 19.5565 7.16699L10.3035 16.419Z" fill="#1D6BF3"/>
</svg>
