<svg width="32" height="33" viewBox="0 0 32 33" fill="none" xmlns="http://www.w3.org/2000/svg">
<path fill-rule="evenodd" clip-rule="evenodd" d="M16 0.794922C7.16344 0.794922 0 7.95837 0 16.7949C0 25.6315 7.16344 32.7949 16 32.7949C24.8366 32.7949 32 25.6315 32 16.7949C32 7.95837 24.8366 0.794922 16 0.794922ZM21.6105 26.1456H18.3452V9.97372H16.888C14.2164 9.97372 12.8131 11.3191 12.8131 13.3104C12.8131 15.5707 13.7846 16.6201 15.7816 17.9655L17.4277 19.0687L12.6782 26.1456H9.14302L13.4068 19.8222C10.9511 18.0731 9.57479 16.3779 9.57479 13.4987C9.57479 9.893 12.0845 7.44434 16.861 7.44434H21.6105V26.1456Z" fill="white"/>
</svg>
