<svg width="20" height="20" viewBox="0 0 20 20" fill="none" xmlns="http://www.w3.org/2000/svg">
<path fill-rule="evenodd" clip-rule="evenodd" d="M9.24769 4.375H10.75C10.8529 4.375 10.9363 4.45841 10.9363 4.56132C10.9363 6.25677 12.7717 7.31652 14.2401 6.46876C14.3292 6.41732 14.4431 6.44785 14.4945 6.53693L15.2458 7.83807C15.2972 7.92718 15.2667 8.04113 15.1776 8.09258C13.7092 8.94033 13.7092 11.0597 15.1776 11.9075C15.2667 11.9589 15.2972 12.0729 15.2458 12.162L14.4945 13.4631C14.4431 13.5522 14.3292 13.5827 14.2401 13.5313C12.7718 12.6835 10.9363 13.7432 10.9363 15.4387C10.9363 15.5416 10.8529 15.625 10.7501 15.625H9.24766C9.14476 15.625 9.06134 15.5416 9.06134 15.4387C9.06134 13.7431 7.22585 12.6835 5.75753 13.5312C5.66839 13.5827 5.55441 13.5521 5.50296 13.463L4.75179 12.162C4.70034 12.0729 4.73087 11.9589 4.81998 11.9075C6.28834 11.0597 6.28834 8.94033 4.81998 8.09257C4.73087 8.04113 4.70034 7.92718 4.75179 7.83807L5.50296 6.53701C5.55442 6.44788 5.66839 6.41734 5.75752 6.4688C7.22588 7.31656 9.06134 6.25687 9.06134 4.56134C9.06134 4.45843 9.14477 4.375 9.24769 4.375ZM7.65509 4.56134C7.65509 3.68178 8.36812 2.96875 9.24769 2.96875H10.75C11.6296 2.96875 12.3426 3.68177 12.3426 4.56132C12.3426 5.17427 13.0061 5.55739 13.537 5.25091C14.2987 4.81115 15.2726 5.07212 15.7124 5.83381L16.4636 7.13495C16.9034 7.89666 16.6424 8.87065 15.8807 9.31042C15.3498 9.61691 15.3498 10.3831 15.8807 10.6896C16.6424 11.1294 16.9034 12.1034 16.4636 12.8651L15.7124 14.1662C15.2726 14.9279 14.2987 15.1889 13.537 14.7491C13.0061 14.4427 12.3426 14.8258 12.3426 15.4387C12.3426 16.3182 11.6296 17.0312 10.7501 17.0312H9.24766C8.36811 17.0312 7.65509 16.3182 7.65509 15.4387C7.65509 14.8257 6.99151 14.4426 6.46066 14.7491C5.69893 15.1889 4.72489 14.9279 4.28511 14.1662L3.53394 12.8651C3.09417 12.1034 3.35515 11.1294 4.11686 10.6896C4.64771 10.3831 4.64771 9.61691 4.11686 9.31042C3.35515 8.87065 3.09417 7.89666 3.53394 7.13495L4.28511 5.83388C4.7249 5.07215 5.69892 4.81117 6.46065 5.25095C6.99151 5.55745 7.65509 5.17433 7.65509 4.56134ZM11.4051 10C11.4051 10.7766 10.7755 11.4062 9.99882 11.4062C9.22217 11.4062 8.59257 10.7766 8.59257 10C8.59257 9.22335 9.22217 8.59375 9.99882 8.59375C10.7755 8.59375 11.4051 9.22335 11.4051 10ZM12.8113 10C12.8113 11.5533 11.5521 12.8125 9.99882 12.8125C8.44552 12.8125 7.18632 11.5533 7.18632 10C7.18632 8.4467 8.44552 7.1875 9.99882 7.1875C11.5521 7.1875 12.8113 8.4467 12.8113 10Z" fill="#1A1B22"/>
</svg>
