<svg width="14" height="16" viewBox="0 0 14 16" fill="none" xmlns="http://www.w3.org/2000/svg">
<path fill-rule="evenodd" clip-rule="evenodd" d="M6.24769 2.375H7.75004C7.85291 2.375 7.93634 2.45841 7.93634 2.56132C7.93634 4.25677 9.77173 5.31652 11.2401 4.46876C11.3292 4.41732 11.4431 4.44785 11.4945 4.53693L12.2458 5.83807C12.2972 5.92718 12.2667 6.04113 12.1776 6.09258C10.7092 6.94033 10.7092 9.05971 12.1776 9.90747C12.2667 9.95891 12.2972 10.0729 12.2458 10.162L11.4945 11.4631C11.4431 11.5522 11.3292 11.5827 11.2401 11.5313C9.77176 10.6835 7.93634 11.7432 7.93634 13.4387C7.93634 13.5416 7.85294 13.625 7.75007 13.625H6.24766C6.14476 13.625 6.06134 13.5416 6.06134 13.4387C6.06134 11.7431 4.22585 10.6835 2.75753 11.5312C2.66839 11.5827 2.55441 11.5521 2.50296 11.463L1.75179 10.162C1.70034 10.0729 1.73087 9.95891 1.81998 9.90747C3.28834 9.05971 3.28834 6.94033 1.81998 6.09257C1.73087 6.04113 1.70034 5.92718 1.75179 5.83807L2.50296 4.53701C2.55442 4.44788 2.66839 4.41734 2.75752 4.4688C4.22588 5.31656 6.06134 4.25687 6.06134 2.56134C6.06134 2.45843 6.14477 2.375 6.24769 2.375ZM4.65509 2.56134C4.65509 1.68178 5.36812 0.96875 6.24769 0.96875H7.75004C8.62958 0.96875 9.34259 1.68177 9.34259 2.56132C9.34259 3.17427 10.0061 3.55739 10.537 3.25091C11.2987 2.81115 12.2726 3.07212 12.7124 3.83381L13.4636 5.13495C13.9034 5.89666 13.6424 6.87065 12.8807 7.31042C12.3498 7.61691 12.3498 8.38313 12.8807 8.68962C13.6424 9.12939 13.9034 10.1034 13.4636 10.8651L12.7124 12.1662C12.2726 12.9279 11.2987 13.1889 10.537 12.7491C10.0061 12.4427 9.34259 12.8258 9.34259 13.4387C9.34259 14.3182 8.62959 15.0312 7.75007 15.0312H6.24766C5.36811 15.0312 4.65509 14.3182 4.65509 13.4387C4.65509 12.8257 3.99151 12.4426 3.46066 12.7491C2.69893 13.1889 1.72489 12.9279 1.28511 12.1662L0.533941 10.8651C0.0941678 10.1034 0.355149 9.12939 1.11686 8.68962C1.64771 8.38313 1.64771 7.61691 1.11686 7.31042C0.355149 6.87065 0.0941683 5.89666 0.533941 5.13495L1.28511 3.83388C1.7249 3.07215 2.69892 2.81117 3.46065 3.25095C3.99151 3.55745 4.65509 3.17433 4.65509 2.56134ZM8.40507 8C8.40507 8.77665 7.77547 9.40625 6.99882 9.40625C6.22217 9.40625 5.59257 8.77665 5.59257 8C5.59257 7.22335 6.22217 6.59375 6.99882 6.59375C7.77547 6.59375 8.40507 7.22335 8.40507 8ZM9.81132 8C9.81132 9.5533 8.55212 10.8125 6.99882 10.8125C5.44552 10.8125 4.18632 9.5533 4.18632 8C4.18632 6.4467 5.44552 5.1875 6.99882 5.1875C8.55212 5.1875 9.81132 6.4467 9.81132 8Z" fill="#1A1B22"/>
</svg>
