<svg width="24" height="24" viewBox="0 0 24 24" fill="none" xmlns="http://www.w3.org/2000/svg">
<path d="M15.7105 12.7101C16.6909 11.9388 17.4065 10.881 17.7577 9.68407C18.109 8.48709 18.0784 7.21039 17.6703 6.03159C17.2621 4.85279 16.4967 3.83052 15.4806 3.10698C14.4644 2.38344 13.2479 1.99463 12.0005 1.99463C10.753 1.99463 9.5366 2.38344 8.52041 3.10698C7.50423 3.83052 6.73883 4.85279 6.3307 6.03159C5.92257 7.21039 5.892 8.48709 6.24325 9.68407C6.59449 10.881 7.31009 11.9388 8.29048 12.7101C6.61056 13.3832 5.14477 14.4995 4.04938 15.94C2.95398 17.3806 2.27005 19.0914 2.07048 20.8901C2.05604 21.0214 2.0676 21.1543 2.10451 21.2812C2.14142 21.408 2.20295 21.5264 2.2856 21.6294C2.4525 21.8376 2.69527 21.971 2.96049 22.0001C3.2257 22.0293 3.49164 21.9519 3.69981 21.785C3.90798 21.6181 4.04131 21.3753 4.07049 21.1101C4.29007 19.1553 5.22217 17.3499 6.6887 16.0389C8.15524 14.7279 10.0534 14.0032 12.0205 14.0032C13.9876 14.0032 15.8857 14.7279 17.3523 16.0389C18.8188 17.3499 19.7509 19.1553 19.9705 21.1101C19.9977 21.3558 20.1149 21.5828 20.2996 21.7471C20.4843 21.9115 20.7233 22.0016 20.9705 22.0001H21.0805C21.3426 21.97 21.5822 21.8374 21.747 21.6314C21.9119 21.4253 21.9886 21.1625 21.9605 20.9001C21.76 19.0963 21.0724 17.3811 19.9713 15.9383C18.8703 14.4955 17.3974 13.3796 15.7105 12.7101ZM12.0005 12.0001C11.2094 12.0001 10.436 11.7655 9.7782 11.326C9.12041 10.8865 8.60772 10.2618 8.30497 9.53086C8.00222 8.79995 7.923 7.99569 8.07734 7.21976C8.23168 6.44384 8.61265 5.73111 9.17206 5.1717C9.73147 4.61229 10.4442 4.23132 11.2201 4.07698C11.996 3.92264 12.8003 4.00186 13.5312 4.30461C14.2621 4.60736 14.8868 5.12005 15.3264 5.77784C15.7659 6.43564 16.0005 7.209 16.0005 8.00012C16.0005 9.06099 15.5791 10.0784 14.8289 10.8286C14.0788 11.5787 13.0614 12.0001 12.0005 12.0001Z" fill="#B5B5B7"/>
</svg>
