<svg width="18" height="18" viewBox="0 0 18 18" fill="none" xmlns="http://www.w3.org/2000/svg">
<path fill-rule="evenodd" clip-rule="evenodd" d="M8.09722 2.25H9.90005C10.0235 2.25 10.1236 2.35009 10.1236 2.47358C10.1236 4.50812 12.3261 5.77983 14.0881 4.76251C14.195 4.70078 14.3317 4.73741 14.3935 4.84432L15.2949 6.40569C15.3567 6.51262 15.32 6.64935 15.2131 6.71109C13.4511 7.72839 13.4511 10.2717 15.2131 11.289C15.32 11.3507 15.3567 11.4874 15.2949 11.5944L14.3935 13.1557C14.3317 13.2626 14.195 13.2993 14.0881 13.2375C12.3261 12.2202 10.1236 13.4919 10.1236 15.5265C10.1236 15.6499 10.0235 15.75 9.90008 15.75H8.0972C7.97371 15.75 7.87361 15.6499 7.87361 15.5264C7.87361 13.4918 5.67102 12.2202 3.90904 13.2375C3.80206 13.2992 3.66529 13.2626 3.60355 13.1556L2.70215 11.5944C2.64041 11.4874 2.67705 11.3507 2.78398 11.289C4.546 10.2717 4.546 7.72839 2.78398 6.71109C2.67705 6.64935 2.64041 6.51262 2.70215 6.40568L3.60355 4.84441C3.6653 4.73746 3.80207 4.70081 3.90903 4.76256C5.67105 5.77987 7.87361 4.50825 7.87361 2.47361C7.87361 2.35011 7.97373 2.25 8.09722 2.25ZM6.18611 2.47361C6.18611 1.41813 7.04175 0.5625 8.09722 0.5625H9.90005C10.9555 0.5625 11.8111 1.41813 11.8111 2.47358C11.8111 3.20913 12.6074 3.66887 13.2444 3.30109C14.1584 2.77338 15.3272 3.08655 15.8549 4.00057L16.7563 5.56194C17.2841 6.47599 16.9709 7.64478 16.0568 8.17251C15.4198 8.54029 15.4198 9.45976 16.0568 9.82754C16.9709 10.3553 17.2841 11.5241 16.7563 12.4381L15.8549 13.9995C15.3272 14.9135 14.1584 15.2267 13.2444 14.699C12.6074 14.3312 11.8111 14.7909 11.8111 15.5265C11.8111 16.5819 10.9555 17.4375 9.90008 17.4375H8.0972C7.04173 17.4375 6.18611 16.5819 6.18611 15.5264C6.18611 14.7908 5.38982 14.3311 4.75279 14.6989C3.83871 15.2266 2.66987 14.9135 2.14213 13.9994L1.24073 12.4381C0.713001 11.5241 1.02618 10.3553 1.94023 9.82754C2.57725 9.45976 2.57725 8.54029 1.94023 8.17251C1.02618 7.64478 0.713002 6.47599 1.24073 5.56193L2.14213 4.00066C2.66987 3.08658 3.8387 2.7734 4.75278 3.30114C5.38981 3.66894 6.18611 3.2092 6.18611 2.47361ZM10.6861 9C10.6861 9.93198 9.93056 10.6875 8.99858 10.6875C8.0666 10.6875 7.31109 9.93198 7.31109 9C7.31109 8.06802 8.0666 7.3125 8.99858 7.3125C9.93056 7.3125 10.6861 8.06802 10.6861 9ZM12.3736 9C12.3736 10.864 10.8625 12.375 8.99858 12.375C7.13462 12.375 5.62359 10.864 5.62359 9C5.62359 7.13604 7.13462 5.625 8.99858 5.625C10.8625 5.625 12.3736 7.13604 12.3736 9Z" fill="#B5B5B7"/>
</svg>
