<svg width="24" height="24" viewBox="0 0 24 24" fill="none" xmlns="http://www.w3.org/2000/svg">
<g clip-path="url(#clip0_987_24384)">
<path d="M22.3233 8.55959H20.8106V7.04679C20.8106 6.12227 20.0585 5.37012 19.134 5.37012H17.6212V3.85746C17.6212 2.9299 16.8687 2.18079 15.9446 2.18079H1.67667C0.754453 2.18083 0 2.92755 0 3.85746V13.7637C0 14.6882 0.752156 15.4403 1.67667 15.4403H3.18937V16.9531C3.18937 17.8776 3.94153 18.6298 4.86605 18.6298H6.37875V20.1425C6.37875 21.067 7.13091 21.8192 8.05542 21.8192H22.3234C23.2479 21.8192 24 21.067 24 20.1425V10.2362C24 9.31174 23.2478 8.55959 22.3233 8.55959ZM14.7343 3.85511L8.81063 9.66045L2.88708 3.85526L14.7343 3.85511ZM1.67442 13.7637L1.67475 5.01157L8.22464 11.4306C8.55019 11.7497 9.07116 11.7496 9.39661 11.4306L15.9465 5.01152L15.9447 13.7659L1.67442 13.7637ZM4.8638 16.953V15.4403H15.9447C16.8692 15.4403 17.6213 14.6882 17.6213 13.7637V7.04482L19.1362 7.04529C19.1362 7.04529 19.1362 7.0458 19.1362 7.04683L19.134 16.9553L4.8638 16.953ZM22.3233 20.1447L8.05317 20.1424V18.6297H19.134C20.0586 18.6297 20.8107 17.8775 20.8107 16.953V10.2342L22.3256 10.2347C22.3256 10.2347 22.3257 10.2352 22.3257 10.2362L22.3233 20.1447Z" fill="#B5B5B7"/>
</g>
<defs>
<clipPath id="clip0_987_24384">
<rect width="24" height="24" fill="white"/>
</clipPath>
</defs>
</svg>
