<svg width="20" height="18" viewBox="0 0 20 18" fill="none" xmlns="http://www.w3.org/2000/svg">
<path d="M10.2631 1.02432e-06C10.1697 -0.000170557 10.0775 0.021216 9.99327 0.062586C9.90902 0.103956 9.83485 0.164256 9.77624 0.239046L9.66514 0.323868C7.51193 -0.362422 5.05539 0.141371 3.34529 1.83782C2.62917 2.53745 2.09642 3.41212 1.79657 4.38053C1.49673 5.34894 1.4395 6.37968 1.63021 7.37697C1.60901 7.39623 1.5882 7.41595 1.5678 7.43609L0.595417 8.39998C0.407318 8.5837 0.257522 8.80493 0.155157 9.05019C0.0527912 9.29544 0 9.55959 0 9.82654C0 10.0935 0.0527912 10.3576 0.155157 10.6029C0.257522 10.8481 0.407318 11.0694 0.595417 11.2531C1.09222 11.7466 1.78125 11.9317 2.42159 11.8083C2.50023 12.1797 2.68373 12.5331 2.97457 12.821C3.35778 13.2014 3.85582 13.3981 4.35762 13.4122C4.37135 13.9096 4.56982 14.4031 4.95303 14.7835C5.33624 15.1639 5.83554 15.3618 6.33733 15.3747C6.34981 15.8721 6.54953 16.3668 6.93274 16.7473C7.29961 17.1057 7.78019 17.3152 8.28552 17.337C8.79086 17.3587 9.28674 17.1912 9.68137 16.8655L10.2269 17.4053C11.0257 18.1982 12.3214 18.1982 13.1203 17.4053C13.5022 17.0274 13.7007 16.5365 13.7182 16.0404C14.2313 16.0268 14.7209 15.8164 15.0913 15.4505C15.4732 15.0714 15.6717 14.5804 15.6867 14.0844C16.194 14.066 16.677 13.8561 17.0435 13.4945C17.3468 13.195 17.5341 12.8236 17.6065 12.4355C17.9278 12.4935 18.2578 12.473 18.57 12.3757C18.8822 12.2783 19.1678 12.1069 19.4039 11.8751C19.5922 11.6914 19.7422 11.4701 19.8447 11.2247C19.9471 10.9793 20 10.715 20 10.4479C20 10.1808 19.9471 9.91652 19.8447 9.67114C19.7422 9.42577 19.5922 9.20446 19.4039 9.02072L18.5052 8.13009L18.6887 7.42324C19.0599 5.97814 18.8719 4.44113 18.1644 3.13586C17.1209 1.20037 15.0962 0.0051417 12.9068 0.0051417H11.3715C11.3054 0.00176805 11.2392 5.40235e-05 11.173 1.02432e-06H10.2631ZM13.325 4.77575L16.327 7.75353L16.3308 7.7561L18.5039 9.91264C18.5745 9.98157 18.6308 10.0646 18.6692 10.1566C18.7076 10.2486 18.7274 10.3478 18.7274 10.4479C18.7274 10.5481 18.7076 10.6472 18.6692 10.7392C18.6308 10.8313 18.5745 10.9143 18.5039 10.9832C18.3581 11.1254 18.1649 11.2046 17.9641 11.2046C17.7632 11.2046 17.57 11.1254 17.4242 10.9832L15.7753 9.34845C15.6544 9.22906 15.4934 9.1624 15.3259 9.1624C15.1584 9.1624 14.9974 9.22906 14.8766 9.34845L14.8591 9.36387C14.8002 9.42127 14.7534 9.49042 14.7213 9.5671C14.6893 9.64377 14.6728 9.72636 14.6728 9.80983C14.6728 9.8933 14.6893 9.97589 14.7213 10.0526C14.7534 10.1292 14.8002 10.1984 14.8591 10.2558L16.1448 11.5307C16.4443 11.8263 16.4443 12.3069 16.1448 12.6038C16.0122 12.7332 15.84 12.811 15.6578 12.8239C15.4756 12.8368 15.2947 12.784 15.1462 12.6745C15.0222 12.5823 14.8708 12.5377 14.7182 12.5485C14.5657 12.5593 14.4216 12.6248 14.3111 12.7336C14.2031 12.84 14.1379 12.9843 14.1284 13.1378C14.1189 13.2914 14.1658 13.443 14.2599 13.5626C14.372 13.7071 14.4272 13.8896 14.4147 14.0741C14.4023 14.2586 14.3229 14.4315 14.1925 14.5586C14.0581 14.6899 13.8829 14.7681 13.6979 14.7793C13.5129 14.7906 13.33 14.7343 13.1814 14.6203C13.0581 14.525 12.9061 14.4777 12.7521 14.4866C12.5982 14.4956 12.4523 14.5602 12.3401 14.6691C12.2307 14.7753 12.1643 14.9202 12.1544 15.0747C12.1444 15.2291 12.1916 15.3818 12.2865 15.5019C12.4011 15.6484 12.458 15.8339 12.4457 16.0216C12.4335 16.2093 12.353 16.3853 12.2203 16.5146C12.0725 16.659 11.8766 16.7395 11.6729 16.7395C11.4693 16.7395 11.2733 16.659 11.1256 16.5146L10.5851 15.9787L10.7823 15.7834C10.9706 15.5996 11.1206 15.3783 11.2231 15.133C11.3255 14.8876 11.3784 14.6233 11.3784 14.3562C11.3784 14.0891 11.3255 13.8248 11.2231 13.5794C11.1206 13.334 10.9706 13.1127 10.7823 12.929C10.4093 12.5609 9.91585 12.3499 9.39927 12.3378C9.38411 11.8174 9.17015 11.3241 8.80386 10.9652C8.4303 10.5973 7.9364 10.3868 7.41955 10.3753C7.4044 9.8549 7.19044 9.36167 6.82414 9.00273C6.58434 8.76773 6.29362 8.59492 5.97606 8.49859C5.65849 8.40227 5.32321 8.38521 4.99797 8.44882C4.91569 8.06209 4.72314 7.70945 4.44499 7.43609C4.23177 7.2266 3.97769 7.06622 3.69963 6.96562C3.42157 6.86502 3.1259 6.8265 2.83227 6.85261C2.73393 6.09952 2.8105 5.33314 3.0557 4.61643C3.3009 3.89972 3.70773 3.25312 4.24278 2.72974C4.78344 2.19791 5.43168 1.79583 6.14104 1.55231C6.85039 1.30878 7.60328 1.22985 8.34575 1.32117L6.52956 2.69632C6.29718 2.87017 6.10143 3.0907 5.95414 3.34461C5.80684 3.59851 5.71105 3.88051 5.67256 4.17359C5.63406 4.46667 5.65365 4.76474 5.73015 5.04981C5.80664 5.33487 5.93846 5.60102 6.11764 5.83218C6.48001 6.29998 7.0036 6.60593 7.5795 6.68636C8.15539 6.76679 8.73922 6.61551 9.20953 6.264L11.1768 4.77704H13.3237L13.325 4.77575ZM7.26852 3.7309L10.504 1.28519H11.173C11.2342 1.28485 11.2954 1.28657 11.3565 1.29033H12.9068C14.6594 1.29033 16.2584 2.24779 17.0735 3.76046C17.6252 4.78346 17.77 5.97226 17.4816 7.09423L17.4779 7.10708L14.0327 3.67949C13.916 3.55889 13.7575 3.49094 13.5921 3.49057H10.9708C10.8383 3.49083 10.7094 3.53449 10.6026 3.61523L8.47057 5.22685C8.26116 5.38125 8.00235 5.44742 7.74711 5.41182C7.49187 5.37622 7.25949 5.24155 7.09751 5.03536C7.02202 4.93962 6.96637 4.82899 6.93398 4.71028C6.90159 4.59156 6.89314 4.46728 6.90916 4.34507C6.92518 4.22287 6.96533 4.10534 7.02713 3.99971C7.08893 3.89408 7.17108 3.8026 7.26852 3.7309ZM7.82024 14.7964L7.83272 14.7835L8.80386 13.8196L8.81509 13.8093C8.96173 13.6721 9.15336 13.597 9.35154 13.5991C9.54972 13.6012 9.73978 13.6805 9.88358 13.8209C9.95418 13.8898 10.0104 13.9728 10.0488 14.0649C10.0872 14.1569 10.1071 14.256 10.1071 14.3562C10.1071 14.4563 10.0872 14.5555 10.0488 14.6475C10.0104 14.7395 9.95418 14.8225 9.88358 14.8915L8.9112 15.8553C8.76538 15.9975 8.57218 16.0768 8.37134 16.0768C8.1705 16.0768 7.9773 15.9975 7.83147 15.8553C7.76181 15.7874 7.70609 15.7058 7.66764 15.6153C7.62918 15.5249 7.60876 15.4273 7.6076 15.3286C7.60643 15.2298 7.62455 15.1318 7.66086 15.0404C7.69717 14.949 7.75095 14.866 7.81899 14.7964H7.82024ZM7.91636 12.9174L7.90387 12.929L6.93274 13.8929L6.92026 13.9044C6.77354 14.0412 6.58208 14.1158 6.38419 14.1134C6.1863 14.111 5.99659 14.0318 5.85301 13.8916C5.78321 13.8234 5.72746 13.7414 5.6891 13.6505C5.65074 13.5597 5.63054 13.4618 5.62973 13.3627C5.62891 13.2636 5.64749 13.1654 5.68435 13.0739C5.72121 12.9824 5.7756 12.8994 5.84427 12.83L5.85301 12.821L6.82414 11.8571L6.83288 11.8481C6.97935 11.7098 7.17133 11.6338 7.3701 11.6354C7.56887 11.6371 7.75962 11.7163 7.90387 11.8571C7.97373 11.9251 8.02961 12.0067 8.06818 12.0974C8.10675 12.188 8.12723 12.2856 8.12839 12.3845C8.12956 12.4835 8.11139 12.5816 8.07496 12.6732C8.03853 12.7647 7.9846 12.8478 7.91636 12.9174ZM5.92541 10.9652L4.95303 11.9291L4.94429 11.9381C4.79783 12.0765 4.60584 12.1525 4.40707 12.1508C4.20831 12.1491 4.01755 12.0699 3.8733 11.9291C3.80271 11.8602 3.74648 11.7772 3.70806 11.6851C3.66964 11.5931 3.64983 11.494 3.64983 11.3938C3.64983 11.2937 3.66964 11.1945 3.70806 11.1025C3.74648 11.0105 3.80271 10.9275 3.8733 10.8585L4.84443 9.89465C4.99032 9.75209 5.18379 9.67262 5.38492 9.67262C5.58605 9.67262 5.77952 9.75209 5.92541 9.89465C5.99541 9.96287 6.05132 10.0449 6.08979 10.1359C6.12827 10.2269 6.14852 10.3249 6.14934 10.4242C6.15016 10.5234 6.13152 10.6218 6.09454 10.7134C6.05757 10.8051 6.00301 10.8881 5.93415 10.9575L5.92541 10.9652ZM3.54626 9.39857L2.57513 10.3625C2.42938 10.5053 2.23586 10.585 2.03464 10.585C1.83342 10.585 1.6399 10.5053 1.49415 10.3625C1.42336 10.2935 1.36697 10.2104 1.32844 10.1183C1.2899 10.0261 1.27002 9.92686 1.27002 9.82654C1.27002 9.72621 1.2899 9.62694 1.32844 9.53479C1.36697 9.44264 1.42336 9.35956 1.49415 9.29061L2.46653 8.32672C2.61236 8.18454 2.80556 8.1053 3.0064 8.1053C3.20723 8.1053 3.40043 8.18454 3.54626 8.32672C3.61705 8.39567 3.67344 8.47875 3.71198 8.5709C3.75051 8.66305 3.77039 8.76232 3.77039 8.86265C3.77039 8.96297 3.75051 9.06225 3.71198 9.15439C3.67344 9.24654 3.61705 9.32963 3.54626 9.39857Z" fill="#B5B5B7"/>
</svg>
