<svg width="90" height="18" viewBox="0 0 90 18" fill="none" xmlns="http://www.w3.org/2000/svg">
<path d="M0 4.8C0 3.11984 0 2.27976 0.32698 1.63803C0.614601 1.07354 1.07354 0.614601 1.63803 0.32698C2.27976 0 3.11984 0 4.8 0H85.2C86.8802 0 87.7202 0 88.362 0.32698C88.9265 0.614601 89.3854 1.07354 89.673 1.63803C90 2.27976 90 3.11984 90 4.8V13.2C90 14.8802 90 15.7202 89.673 16.362C89.3854 16.9265 88.9265 17.3854 88.362 17.673C87.7202 18 86.8802 18 85.2 18H4.8C3.11984 18 2.27976 18 1.63803 17.673C1.07354 17.3854 0.614601 16.9265 0.32698 16.362C0 15.7202 0 14.8802 0 13.2V4.8Z" fill="#32BA76" fill-opacity="0.15"/>
<path fill-rule="evenodd" clip-rule="evenodd" d="M16.1161 5.57293C16.3519 5.7751 16.3793 6.13021 16.1771 6.36608L11.6771 11.6161C11.5751 11.735 11.4282 11.8061 11.2716 11.8121C11.115 11.8181 10.963 11.7585 10.8523 11.6478L8.22725 9.02276C8.00758 8.80309 8.00758 8.44693 8.22725 8.22726C8.44692 8.00759 8.80308 8.00759 9.02275 8.22726L11.2182 10.4227L15.3229 5.63394C15.5251 5.39807 15.8802 5.37075 16.1161 5.57293Z" fill="#2D8B5D"/>
<path d="M24.521 10.47H21.76V13H20.792V7.291H21.76V9.645H24.521V7.291H25.489V13H24.521V10.47ZM30.4202 11.911C30.3542 12.043 30.2698 12.1823 30.1672 12.329C30.0645 12.4683 29.9362 12.5967 29.7822 12.714C29.6282 12.8313 29.4448 12.9267 29.2322 13C29.0268 13.0733 28.7848 13.11 28.5062 13.11C27.9928 13.11 27.5785 12.967 27.2632 12.681C26.9478 12.3877 26.7902 11.9697 26.7902 11.427C26.7902 10.8037 27.0065 10.3453 27.4392 10.052C27.8792 9.75867 28.5025 9.612 29.3092 9.612H30.3762V9.139C30.3762 8.743 30.2735 8.46067 30.0682 8.292C29.8628 8.12333 29.5108 8.039 29.0122 8.039C28.6602 8.039 28.3265 8.09767 28.0112 8.215C27.6958 8.325 27.4135 8.45333 27.1642 8.6V7.731C27.3695 7.60633 27.6445 7.48533 27.9892 7.368C28.3412 7.24333 28.7262 7.181 29.1442 7.181C29.8628 7.181 30.4092 7.33133 30.7832 7.632C31.1572 7.92533 31.3442 8.38367 31.3442 9.007V12.076C31.3442 12.142 31.3442 12.219 31.3442 12.307C31.3515 12.3877 31.3552 12.472 31.3552 12.56C31.3625 12.648 31.3698 12.7323 31.3772 12.813C31.3845 12.8863 31.3918 12.9487 31.3992 13H30.5192C30.4972 12.8973 30.4752 12.7543 30.4532 12.571C30.4385 12.3803 30.4312 12.2153 30.4312 12.076L30.4202 11.911ZM28.7152 12.241C29.0158 12.241 29.2725 12.1787 29.4852 12.054C29.6978 11.9293 29.8702 11.7863 30.0022 11.625C30.1342 11.4563 30.2295 11.295 30.2882 11.141C30.3468 10.9797 30.3762 10.866 30.3762 10.8V10.382H29.4082C28.8288 10.382 28.4072 10.4663 28.1432 10.635C27.8865 10.7963 27.7582 11.042 27.7582 11.372C27.7582 11.6287 27.8352 11.8377 27.9892 11.999C28.1432 12.1603 28.3852 12.241 28.7152 12.241ZM37.6262 13.11C37.2375 13.11 36.8745 13.044 36.5372 12.912C36.1999 12.78 35.9065 12.5893 35.6572 12.34C35.4152 12.0833 35.2245 11.7717 35.0852 11.405C34.9459 11.0383 34.8762 10.6167 34.8762 10.14C34.8762 9.67067 34.9459 9.25267 35.0852 8.886C35.2245 8.512 35.4152 8.20033 35.6572 7.951C35.9065 7.70167 36.1999 7.511 36.5372 7.379C36.8745 7.247 37.2375 7.181 37.6262 7.181C38.0222 7.181 38.3889 7.247 38.7262 7.379C39.0635 7.511 39.3532 7.70167 39.5952 7.951C39.8445 8.20033 40.0389 8.512 40.1782 8.886C40.3249 9.25267 40.3982 9.67067 40.3982 10.14C40.3982 10.6167 40.3249 11.0383 40.1782 11.405C40.0389 11.7717 39.8445 12.0833 39.5952 12.34C39.3532 12.5893 39.0635 12.78 38.7262 12.912C38.3889 13.044 38.0222 13.11 37.6262 13.11ZM37.6262 12.241C37.8829 12.241 38.1175 12.2007 38.3302 12.12C38.5502 12.032 38.7409 11.9037 38.9022 11.735C39.0635 11.559 39.1882 11.339 39.2762 11.075C39.3642 10.811 39.4082 10.4993 39.4082 10.14C39.4082 9.78067 39.3642 9.469 39.2762 9.205C39.1882 8.941 39.0635 8.72467 38.9022 8.556C38.7409 8.38 38.5502 8.25167 38.3302 8.171C38.1175 8.083 37.8829 8.039 37.6262 8.039C37.3695 8.039 37.1349 8.083 36.9222 8.171C36.7095 8.25167 36.5225 8.38 36.3612 8.556C36.2072 8.72467 36.0862 8.941 35.9982 9.205C35.9102 9.469 35.8662 9.78067 35.8662 10.14C35.8662 10.4993 35.9102 10.811 35.9982 11.075C36.0862 11.339 36.2072 11.559 36.3612 11.735C36.5225 11.9037 36.7095 12.032 36.9222 12.12C37.1349 12.2007 37.3695 12.241 37.6262 12.241ZM43.716 8.116V13H42.748V8.116H40.955V7.291H45.542V8.116H43.716ZM46.6592 7.291H51.2352V13H50.2672V8.116H47.6272V13H46.6592V7.291ZM55.6855 13.11C55.2455 13.11 54.8641 13.0073 54.5415 12.802C54.2261 12.5967 53.9731 12.3143 53.7825 11.955V14.947H52.8145V7.291H53.6615L53.7605 8.402C53.9511 8.028 54.2078 7.731 54.5305 7.511C54.8531 7.291 55.2528 7.181 55.7295 7.181C56.0595 7.181 56.3748 7.24333 56.6755 7.368C56.9835 7.48533 57.2511 7.66867 57.4785 7.918C57.7131 8.16 57.8965 8.468 58.0285 8.842C58.1678 9.20867 58.2375 9.64133 58.2375 10.14C58.2375 10.646 58.1678 11.086 58.0285 11.46C57.8891 11.8267 57.7021 12.1347 57.4675 12.384C57.2328 12.626 56.9615 12.8093 56.6535 12.934C56.3455 13.0513 56.0228 13.11 55.6855 13.11ZM55.5425 12.241C56.0485 12.241 56.4555 12.0687 56.7635 11.724C57.0788 11.372 57.2365 10.844 57.2365 10.14C57.2365 9.45067 57.0788 8.93 56.7635 8.578C56.4555 8.21867 56.0485 8.039 55.5425 8.039C55.2931 8.039 55.0585 8.083 54.8385 8.171C54.6258 8.259 54.4388 8.391 54.2775 8.567C54.1235 8.73567 53.9988 8.952 53.9035 9.216C53.8155 9.48 53.7715 9.788 53.7715 10.14C53.7715 10.492 53.8155 10.8 53.9035 11.064C53.9988 11.328 54.1235 11.548 54.2775 11.724C54.4388 11.9 54.6258 12.032 54.8385 12.12C55.0585 12.2007 55.2931 12.241 55.5425 12.241ZM62.7005 11.911C62.6345 12.043 62.5501 12.1823 62.4475 12.329C62.3448 12.4683 62.2165 12.5967 62.0625 12.714C61.9085 12.8313 61.7251 12.9267 61.5125 13C61.3071 13.0733 61.0651 13.11 60.7865 13.11C60.2731 13.11 59.8588 12.967 59.5435 12.681C59.2281 12.3877 59.0705 11.9697 59.0705 11.427C59.0705 10.8037 59.2868 10.3453 59.7195 10.052C60.1595 9.75867 60.7828 9.612 61.5895 9.612H62.6565V9.139C62.6565 8.743 62.5538 8.46067 62.3485 8.292C62.1431 8.12333 61.7911 8.039 61.2925 8.039C60.9405 8.039 60.6068 8.09767 60.2915 8.215C59.9761 8.325 59.6938 8.45333 59.4445 8.6V7.731C59.6498 7.60633 59.9248 7.48533 60.2695 7.368C60.6215 7.24333 61.0065 7.181 61.4245 7.181C62.1431 7.181 62.6895 7.33133 63.0635 7.632C63.4375 7.92533 63.6245 8.38367 63.6245 9.007V12.076C63.6245 12.142 63.6245 12.219 63.6245 12.307C63.6318 12.3877 63.6355 12.472 63.6355 12.56C63.6428 12.648 63.6501 12.7323 63.6575 12.813C63.6648 12.8863 63.6721 12.9487 63.6795 13H62.7995C62.7775 12.8973 62.7555 12.7543 62.7335 12.571C62.7188 12.3803 62.7115 12.2153 62.7115 12.076L62.7005 11.911ZM60.9955 12.241C61.2961 12.241 61.5528 12.1787 61.7655 12.054C61.9781 11.9293 62.1505 11.7863 62.2825 11.625C62.4145 11.4563 62.5098 11.295 62.5685 11.141C62.6271 10.9797 62.6565 10.866 62.6565 10.8V10.382H61.6885C61.1091 10.382 60.6875 10.4663 60.4235 10.635C60.1668 10.7963 60.0385 11.042 60.0385 11.372C60.0385 11.6287 60.1155 11.8377 60.2695 11.999C60.4235 12.1603 60.6655 12.241 60.9955 12.241ZM65.1465 7.291H67.2805C67.9698 7.291 68.4905 7.412 68.8425 7.654C69.1945 7.88867 69.3705 8.259 69.3705 8.765C69.3705 9.10233 69.2825 9.37367 69.1065 9.579C68.9378 9.777 68.6958 9.92 68.3805 10.008C69.1945 10.14 69.6015 10.591 69.6015 11.361C69.6015 11.6543 69.5428 11.9073 69.4255 12.12C69.3082 12.3253 69.1468 12.494 68.9415 12.626C68.7362 12.758 68.4868 12.8533 68.1935 12.912C67.9075 12.9707 67.5958 13 67.2585 13H65.1465V7.291ZM66.1145 8.116V9.667H67.1925C67.5592 9.667 67.8525 9.601 68.0725 9.469C68.2998 9.337 68.4135 9.14633 68.4135 8.897C68.4135 8.59633 68.3145 8.391 68.1165 8.281C67.9185 8.171 67.6362 8.116 67.2695 8.116H66.1145ZM66.1145 10.437V12.175H67.2475C67.4528 12.175 67.6362 12.164 67.7975 12.142C67.9662 12.1127 68.1092 12.065 68.2265 11.999C68.3512 11.933 68.4465 11.845 68.5125 11.735C68.5785 11.625 68.6115 11.4893 68.6115 11.328C68.6115 10.998 68.4978 10.767 68.2705 10.635C68.0432 10.503 67.7022 10.437 67.2475 10.437H66.1145ZM72.5287 10.569H72.0227V13H71.0547V7.291H72.0227V9.744H72.5727L74.5747 7.291H75.6747L73.3317 10.107L75.7187 13H74.5417L72.5287 10.569ZM79.596 12.934C79.464 13.2787 79.3247 13.5793 79.178 13.836C79.0314 14.1 78.8664 14.3237 78.683 14.507C78.4997 14.6903 78.2944 14.826 78.067 14.914C77.8397 15.0093 77.5794 15.057 77.286 15.057C77.1394 15.057 77.0037 15.046 76.879 15.024C76.7544 15.0093 76.6407 14.98 76.538 14.936V14.001C76.6187 14.0597 76.7214 14.1037 76.846 14.133C76.9707 14.1697 77.1064 14.188 77.253 14.188C77.5244 14.188 77.748 14.122 77.924 13.99C78.1 13.8653 78.2687 13.6637 78.43 13.385L76.109 7.291H77.176L78.991 12.109L80.795 7.291H81.73L79.596 12.934Z" fill="#2D8B5D"/>
</svg>
