<svg width="23" height="22" viewBox="0 0 23 22" fill="none" xmlns="http://www.w3.org/2000/svg">
<path d="M21.5186 1.42772C21.2339 1.19085 20.8903 1.03561 20.5243 0.978523C20.1584 0.921433 19.7838 0.964627 19.4405 1.10351L1.51957 8.33886C1.13632 8.49654 0.810083 8.76705 0.584166 9.11448C0.35825 9.4619 0.243334 9.86982 0.254671 10.2841C0.266009 10.6984 0.403063 11.0994 0.647644 11.4339C0.892225 11.7685 1.23277 12.0207 1.62407 12.1572L5.24907 13.418L7.26957 20.0996C7.29702 20.1889 7.33687 20.2738 7.38795 20.352C7.3957 20.364 7.40663 20.3729 7.41487 20.3846C7.47387 20.4669 7.54518 20.5397 7.6263 20.6003C7.64936 20.6179 7.67146 20.6344 7.69612 20.65C7.79105 20.713 7.89618 20.7591 8.00685 20.7861L8.01869 20.7871L8.0254 20.79C8.09193 20.8035 8.15965 20.8104 8.22755 20.8105C8.23408 20.8105 8.23988 20.8074 8.24635 20.8073C8.34881 20.8055 8.45037 20.7878 8.54744 20.755C8.57002 20.7473 8.58937 20.7344 8.61128 20.7251C8.68365 20.6951 8.75223 20.6567 8.81557 20.6106C8.86629 20.5678 8.91703 20.5251 8.96778 20.4824L11.6699 17.499L15.7002 20.6211C16.055 20.8973 16.4918 21.0474 16.9414 21.0478C17.4126 21.0472 17.8693 20.8846 18.2348 20.5874C18.6004 20.2901 18.8526 19.8762 18.9493 19.415L22.2119 3.39843C22.2859 3.03795 22.2604 2.66415 22.1383 2.31702C22.0162 1.96989 21.802 1.66249 21.5186 1.42772ZM8.62407 13.7363C8.48541 13.8744 8.39062 14.0504 8.35161 14.2422L8.0421 15.7462L7.25804 13.1531L11.3233 11.0362L8.62407 13.7363ZM16.9258 19.04L12.1631 15.3505C11.9639 15.1966 11.7139 15.1233 11.4631 15.1454C11.2122 15.1675 10.9789 15.2833 10.8096 15.4697L9.9442 16.4249L10.25 14.9384L17.333 7.85543C17.5021 7.68659 17.6051 7.46278 17.6234 7.22455C17.6417 6.98632 17.5741 6.74941 17.4327 6.55675C17.2914 6.36408 17.0858 6.22839 16.8531 6.17426C16.6203 6.12014 16.3759 6.15115 16.1641 6.26168L5.99882 11.5543L2.27446 10.1914L20.2529 2.99899L16.9258 19.04Z" fill="#1D6BF3"/>
</svg>
